<svg width="479" height="479" viewBox="0 0 479 479" fill="none" xmlns="http://www.w3.org/2000/svg">
<path d="M94.0156 369.223C94.0156 366.671 94.8815 364.529 96.6133 362.797C98.4362 360.974 100.624 360.062 103.176 360.062H182.746C185.298 360.062 187.486 360.928 189.309 362.66C191.04 364.483 191.906 366.671 191.906 369.223C191.906 371.775 190.995 373.962 189.172 375.785C187.44 377.517 185.298 378.383 182.746 378.383H152.258V433.754C151.711 439.223 148.703 442.185 143.234 442.641C140.682 442.641 138.449 441.82 136.535 440.18C134.712 438.448 133.801 436.306 133.801 433.754V378.383H103.176C100.624 378.383 98.4818 377.471 96.75 375.648C94.9271 373.917 94.0156 371.775 94.0156 369.223ZM265.598 360.062C271.978 360.427 277.219 362.888 281.32 367.445C285.422 371.911 288.384 377.016 290.207 382.758C292.03 388.5 292.941 394.379 292.941 400.395C292.941 406.41 292.03 412.289 290.207 418.031C288.475 423.773 285.513 428.923 281.32 433.48C277.219 437.947 271.978 440.362 265.598 440.727H215.285C212.824 440.635 210.728 439.77 208.996 438.129C207.355 436.397 206.49 434.301 206.398 431.84V397.934C206.49 395.382 207.447 393.285 209.27 391.645C211.092 389.913 213.28 389.047 215.832 389.047C218.293 389.138 220.389 390.049 222.121 391.781C223.853 393.422 224.764 395.473 224.855 397.934V418.715C224.855 421.176 226.132 422.406 228.684 422.406H260.949C264.413 422.224 267.284 420.902 269.562 418.441C271.841 415.98 273.482 413.201 274.484 410.102C275.578 406.911 276.125 403.676 276.125 400.395C276.125 397.113 275.578 393.923 274.484 390.824C273.482 387.634 271.841 384.809 269.562 382.348C267.284 379.887 264.413 378.565 260.949 378.383H215.285C209.816 377.927 206.854 374.965 206.398 369.496C206.398 366.944 207.219 364.757 208.859 362.934C210.591 361.111 212.733 360.154 215.285 360.062H265.598ZM339.016 378.383C335.552 378.565 332.635 379.887 330.266 382.348C327.987 384.809 326.346 387.634 325.344 390.824C324.341 393.923 323.84 397.113 323.84 400.395C323.84 403.676 324.296 406.911 325.207 410.102C326.21 413.292 327.896 416.117 330.266 418.578C332.635 420.948 335.552 422.224 339.016 422.406H384.133C389.875 422.953 393.02 426.098 393.566 431.84C393.475 434.392 392.518 436.534 390.695 438.266C388.872 439.906 386.685 440.727 384.133 440.727H340.52H334.23C327.85 440.362 322.609 437.947 318.508 433.48C314.406 428.923 311.444 423.773 309.621 418.031C307.889 412.289 307.023 406.41 307.023 400.395C307.023 395.928 307.525 391.508 308.527 387.133C309.53 382.758 311.079 378.611 313.176 374.691C315.363 370.681 318.234 367.263 321.789 364.438C325.435 361.612 329.582 360.154 334.23 360.062H336.828H384.133C389.875 360.609 393.02 363.754 393.566 369.496C393.566 372.048 392.609 374.19 390.695 375.922C388.872 377.562 386.685 378.383 384.133 378.383H339.016Z" fill="white"/>
<circle cx="102" cy="237" r="77" fill="#EEEEEE"/>
<path d="M71.4733 253.338C62.9733 249.338 56.9733 211.301 92.9733 221.838C99.201 223.66 104.328 227.415 108.42 231.838M120.473 253.338C119.026 248.065 115.104 239.061 108.42 231.838M96.9733 245.338C96.771 241.671 98.777 233.838 108.42 231.838" stroke="#222831" stroke-width="2" stroke-linecap="round"/>
<circle cx="377" cy="237" r="77" fill="#EEEEEE"/>
<circle cx="240.5" cy="177.5" r="128.5" fill="#00ADB5"/>
<path d="M241 89C303.96 89 355 105.671 355 161.87C355 191.61 337.357 218.984 313.187 240.121C315.659 245.305 317 250.858 317 256.632C317 285.147 284.317 314 244 314C203.683 314 171 285.147 171 256.632C171 252.24 171.775 247.976 173.234 243.905C146.272 222.478 127 194.175 127 161.87C127 105.671 178.04 89 241 89Z" fill="#EEEEEE"/>
<ellipse cx="191.5" cy="224" rx="8.5" ry="8" fill="#222831"/>
<ellipse cx="292.5" cy="224" rx="8.5" ry="8" fill="#222831"/>
<path d="M185 252.586C205.567 263.943 213.794 260.356 230.247 254.379C246.701 248.402 242.588 248.402 256.691 252.586C270.794 256.77 281.371 260.356 299 249" stroke="#222831" stroke-width="2" stroke-linecap="round"/>
<path d="M175 210C178.252 206.34 186.605 200.119 194 204.51" stroke="#222831" stroke-width="3" stroke-linecap="round"/>
<path d="M307 209C303.748 205.34 295.395 199.119 288 203.51" stroke="#222831" stroke-width="3" stroke-linecap="round"/>
<ellipse cx="230.554" cy="238.851" rx="2.03313" ry="5.48351" transform="rotate(46.3055 230.554 238.851)" fill="#222831"/>
<ellipse cx="254.222" cy="237.778" rx="2.03313" ry="5.48351" transform="rotate(135 254.222 237.778)" fill="#222831"/>
<path d="M209.531 137.781C209.531 136.031 210.125 134.562 211.312 133.375C212.562 132.125 214.062 131.5 215.812 131.5H270.375C272.125 131.5 273.625 132.094 274.875 133.281C276.062 134.531 276.656 136.031 276.656 137.781C276.656 139.531 276.031 141.031 274.781 142.281C273.594 143.469 272.125 144.062 270.375 144.062H249.469V182.031C249.094 185.781 247.031 187.812 243.281 188.125C241.531 188.125 240 187.562 238.688 186.438C237.438 185.25 236.812 183.781 236.812 182.031V144.062H215.812C214.062 144.062 212.594 143.438 211.406 142.188C210.156 141 209.531 139.531 209.531 137.781Z" fill="#00ADB5"/>
<path d="M408 257.338C416.5 253.338 422.5 215.301 386.5 225.838C380.272 227.66 375.145 231.415 371.054 235.838M359 257.338C360.447 252.065 364.37 243.061 371.054 235.838M382.5 249.338C382.702 245.671 380.696 237.838 371.054 235.838" stroke="#222831" stroke-width="2" stroke-linecap="round"/>
<mask id="path-16-outside-1_126_3" maskUnits="userSpaceOnUse" x="11" y="35" width="457" height="293" fill="black">
<rect fill="white" x="11" y="35" width="457" height="293"/>
<path d="M240.5 49C305.717 49 359.584 97.5847 367.887 160.534C370.875 160.182 373.917 160 377 160C419.526 160 454 194.474 454 237C454 279.526 419.526 314 377 314C351.437 314 328.782 301.543 314.777 282.368C310.542 285.373 306.117 288.129 301.523 290.612C288.162 304.31 267.363 314 244 314C224.697 314 207.144 307.385 194.09 297.36C183.629 293.307 173.829 287.926 164.901 281.42C150.957 301.131 127.982 314 102 314C59.4741 314 25 279.526 25 237C25 194.474 59.4741 160 102 160C105.762 160 109.46 160.271 113.077 160.792C121.267 97.7172 175.194 49 240.5 49Z"/>
</mask>
<path d="M367.887 160.534L354.007 162.365C355.008 169.956 361.922 175.334 369.526 174.438L367.887 160.534ZM314.777 282.368L326.083 274.111C321.567 267.927 312.92 266.519 306.676 270.951L314.777 282.368ZM301.523 290.612L294.865 278.297C293.622 278.969 292.488 279.825 291.502 280.836L301.523 290.612ZM244 314L244 328H244V314ZM194.09 297.36L202.617 286.257C201.559 285.445 200.391 284.788 199.148 284.306L194.09 297.36ZM164.901 281.42L173.146 270.105C170.118 267.899 166.332 266.998 162.634 267.605C158.937 268.212 155.636 270.275 153.472 273.334L164.901 281.42ZM113.077 160.792L111.081 174.649C114.789 175.183 118.557 174.209 121.542 171.943C124.526 169.678 126.478 166.31 126.961 162.595L113.077 160.792ZM240.5 49V63C298.6 63 346.61 106.287 354.007 162.365L367.887 160.534L381.766 158.703C372.557 88.8822 312.834 35 240.5 35V49ZM367.887 160.534L369.526 174.438C371.974 174.149 374.467 174 377 174V160V146C373.366 146 369.777 146.214 366.247 146.631L367.887 160.534ZM377 160V174C411.794 174 440 202.206 440 237H454H468C468 186.742 427.258 146 377 146V160ZM454 237H440C440 271.794 411.794 300 377 300V314V328C427.258 328 468 287.258 468 237H454ZM377 314V300C356.094 300 337.565 289.832 326.083 274.111L314.777 282.368L303.472 290.625C319.999 313.254 346.779 328 377 328V314ZM314.777 282.368L306.676 270.951C302.9 273.63 298.957 276.085 294.865 278.297L301.523 290.612L308.182 302.928C313.277 300.173 318.184 297.117 322.879 293.786L314.777 282.368ZM301.523 290.612L291.502 280.836C280.765 291.843 263.576 300 244 300V314V328C271.151 328 295.558 316.777 311.545 300.388L301.523 290.612ZM244 314L244 300C227.869 300 213.296 294.458 202.617 286.257L194.09 297.36L185.563 308.464C200.992 320.312 221.525 328 244 328L244 314ZM194.09 297.36L199.148 284.306C189.833 280.697 181.103 275.904 173.146 270.105L164.901 281.42L156.656 292.734C166.555 299.948 177.424 305.917 189.032 310.415L194.09 297.36ZM164.901 281.42L153.472 273.334C142.039 289.496 123.246 300 102 300V314V328C132.718 328 159.874 312.766 176.33 289.506L164.901 281.42ZM102 314V300C67.2061 300 39 271.794 39 237H25H11C11 287.258 51.7421 328 102 328V314ZM25 237H39C39 202.206 67.2061 174 102 174V160V146C51.7421 146 11 186.742 11 237H25ZM102 160V174C105.089 174 108.12 174.222 111.081 174.649L113.077 160.792L115.074 146.935C110.8 146.319 106.434 146 102 146V160ZM113.077 160.792L126.961 162.595C134.256 106.406 182.32 63 240.5 63V49V35C168.068 35 108.277 89.0287 99.1937 158.989L113.077 160.792Z" fill="#222831" mask="url(#path-16-outside-1_126_3)"/>
</svg>
