<svg width="479" height="479" viewBox="0 0 479 479" fill="none" xmlns="http://www.w3.org/2000/svg">
<rect width="479" height="479" rx="59" fill="#393E46"/>
<path d="M94.0156 369.223C94.0156 366.671 94.8815 364.529 96.6133 362.797C98.4362 360.974 100.624 360.062 103.176 360.062H182.746C185.298 360.062 187.486 360.928 189.309 362.66C191.04 364.483 191.906 366.671 191.906 369.223C191.906 371.775 190.995 373.962 189.172 375.785C187.44 377.517 185.298 378.383 182.746 378.383H152.258V433.754C151.711 439.223 148.703 442.185 143.234 442.641C140.682 442.641 138.449 441.82 136.535 440.18C134.712 438.448 133.801 436.306 133.801 433.754V378.383H103.176C100.624 378.383 98.4818 377.471 96.75 375.648C94.9271 373.917 94.0156 371.775 94.0156 369.223ZM265.598 360.062C271.978 360.427 277.219 362.888 281.32 367.445C285.422 371.911 288.384 377.016 290.207 382.758C292.03 388.5 292.941 394.379 292.941 400.395C292.941 406.41 292.03 412.289 290.207 418.031C288.475 423.773 285.513 428.923 281.32 433.48C277.219 437.947 271.978 440.362 265.598 440.727H215.285C212.824 440.635 210.728 439.77 208.996 438.129C207.355 436.397 206.49 434.301 206.398 431.84V397.934C206.49 395.382 207.447 393.285 209.27 391.645C211.092 389.913 213.28 389.047 215.832 389.047C218.293 389.138 220.389 390.049 222.121 391.781C223.853 393.422 224.764 395.473 224.855 397.934V418.715C224.855 421.176 226.132 422.406 228.684 422.406H260.949C264.413 422.224 267.284 420.902 269.562 418.441C271.841 415.98 273.482 413.201 274.484 410.102C275.578 406.911 276.125 403.676 276.125 400.395C276.125 397.113 275.578 393.923 274.484 390.824C273.482 387.634 271.841 384.809 269.562 382.348C267.284 379.887 264.413 378.565 260.949 378.383H215.285C209.816 377.927 206.854 374.965 206.398 369.496C206.398 366.944 207.219 364.757 208.859 362.934C210.591 361.111 212.733 360.154 215.285 360.062H265.598ZM339.016 378.383C335.552 378.565 332.635 379.887 330.266 382.348C327.987 384.809 326.346 387.634 325.344 390.824C324.341 393.923 323.84 397.113 323.84 400.395C323.84 403.676 324.296 406.911 325.207 410.102C326.21 413.292 327.896 416.117 330.266 418.578C332.635 420.948 335.552 422.224 339.016 422.406H384.133C389.875 422.953 393.02 426.098 393.566 431.84C393.475 434.392 392.518 436.534 390.695 438.266C388.872 439.906 386.685 440.727 384.133 440.727H340.52H334.23C327.85 440.362 322.609 437.947 318.508 433.48C314.406 428.923 311.444 423.773 309.621 418.031C307.889 412.289 307.023 406.41 307.023 400.395C307.023 395.928 307.525 391.508 308.527 387.133C309.53 382.758 311.079 378.611 313.176 374.691C315.363 370.681 318.234 367.263 321.789 364.438C325.435 361.612 329.582 360.154 334.23 360.062H336.828H384.133C389.875 360.609 393.02 363.754 393.566 369.496C393.566 372.048 392.609 374.19 390.695 375.922C388.872 377.562 386.685 378.383 384.133 378.383H339.016Z" fill="white"/>
<circle cx="102" cy="237" r="77" fill="#EEEEEE"/>
<path d="M71.4733 253.338C62.9733 249.338 56.9733 211.301 92.9733 221.838C99.201 223.66 104.328 227.415 108.42 231.838M120.473 253.338C119.026 248.065 115.104 239.061 108.42 231.838M96.9733 245.338C96.771 241.671 98.777 233.838 108.42 231.838" stroke="#222831" stroke-width="2" stroke-linecap="round"/>
<circle cx="377" cy="237" r="77" fill="#EEEEEE"/>
<circle cx="240.5" cy="177.5" r="128.5" fill="#00ADB5"/>
<path fill-rule="evenodd" clip-rule="evenodd" d="M313.189 240.122C337.359 218.985 355 191.61 355 161.87C355 105.671 303.96 89 241 89C178.04 89 127 105.671 127 161.87C127 194.175 146.271 222.48 173.234 243.907C171.775 247.977 171 252.24 171 256.632C171 285.147 203.683 314 244 314C284.317 314 317 285.147 317 256.632C317 250.858 315.66 245.306 313.189 240.122Z" fill="#EEEEEE"/>
<ellipse cx="191.5" cy="224" rx="8.5" ry="8" fill="#222831"/>
<ellipse cx="292.5" cy="224" rx="8.5" ry="8" fill="#222831"/>
<path d="M185 252.586C205.567 263.943 213.794 260.356 230.247 254.379C246.701 248.402 242.588 248.402 256.691 252.586C270.794 256.77 281.371 260.356 299 249" stroke="#222831" stroke-width="2" stroke-linecap="round"/>
<path d="M175 210C178.252 206.34 186.605 200.119 194 204.51" stroke="#222831" stroke-width="3" stroke-linecap="round"/>
<path d="M307 209C303.748 205.34 295.395 199.119 288 203.51" stroke="#222831" stroke-width="3" stroke-linecap="round"/>
<ellipse cx="230.554" cy="238.851" rx="2.03313" ry="5.48351" transform="rotate(46.3055 230.554 238.851)" fill="#222831"/>
<ellipse cx="254.222" cy="237.778" rx="2.03313" ry="5.48351" transform="rotate(135 254.222 237.778)" fill="#222831"/>
<path d="M209.531 137.781C209.531 136.031 210.125 134.562 211.312 133.375C212.562 132.125 214.062 131.5 215.812 131.5H270.375C272.125 131.5 273.625 132.094 274.875 133.281C276.062 134.531 276.656 136.031 276.656 137.781C276.656 139.531 276.031 141.031 274.781 142.281C273.594 143.469 272.125 144.062 270.375 144.062H249.469V182.031C249.094 185.781 247.031 187.812 243.281 188.125C241.531 188.125 240 187.562 238.688 186.438C237.438 185.25 236.812 183.781 236.812 182.031V144.062H215.812C214.062 144.062 212.594 143.438 211.406 142.188C210.156 141 209.531 139.531 209.531 137.781Z" fill="#00ADB5"/>
<path d="M408 257.338C416.5 253.338 422.5 215.301 386.5 225.838C380.272 227.66 375.145 231.415 371.054 235.838M359 257.338C360.447 252.065 364.37 243.061 371.054 235.838M382.5 249.338C382.702 245.671 380.696 237.838 371.054 235.838" stroke="#222831" stroke-width="2" stroke-linecap="round"/>
<mask id="path-17-outside-1_101_2" maskUnits="userSpaceOnUse" x="11" y="35" width="457" height="293" fill="black">
<rect fill="white" x="11" y="35" width="457" height="293"/>
<path fill-rule="evenodd" clip-rule="evenodd" d="M301.524 290.613C306.118 288.13 310.544 285.375 314.779 282.369C328.784 301.543 351.437 314 377 314C419.526 314 454 279.526 454 237C454 194.474 419.526 160 377 160C373.918 160 370.878 160.181 367.89 160.533C359.586 97.584 305.717 49 240.5 49C175.194 49 121.267 97.7165 113.076 160.791C109.459 160.27 105.761 160 102 160C59.4741 160 25 194.474 25 237C25 279.526 59.4741 314 102 314C127.982 314 150.958 301.132 164.903 281.421C173.832 287.928 183.632 293.312 194.095 297.365C207.148 307.388 224.699 314 244 314C267.363 314 288.163 304.311 301.524 290.613Z"/>
</mask>
<path d="M314.779 282.369L326.084 274.112C321.568 267.928 312.922 266.52 306.677 270.952L314.779 282.369ZM301.524 290.613L294.866 278.298C293.623 278.97 292.489 279.826 291.503 280.838L301.524 290.613ZM367.89 160.533L354.01 162.364C355.011 169.955 361.925 175.333 369.529 174.437L367.89 160.533ZM113.076 160.791L111.08 174.648C114.789 175.182 118.557 174.207 121.541 171.942C124.526 169.676 126.477 166.309 126.96 162.594L113.076 160.791ZM164.903 281.421L173.148 270.106C170.119 267.9 166.333 266.999 162.635 267.606C158.938 268.213 155.638 270.277 153.474 273.335L164.903 281.421ZM194.095 297.365L202.621 286.261C201.563 285.449 200.395 284.792 199.152 284.311L194.095 297.365ZM306.677 270.952C302.902 273.631 298.958 276.086 294.866 278.298L308.182 302.929C313.278 300.174 318.185 297.119 322.881 293.787L306.677 270.952ZM377 300C356.095 300 337.567 289.832 326.084 274.112L303.474 290.627C320.001 313.255 346.779 328 377 328V300ZM440 237C440 271.794 411.794 300 377 300V328C427.258 328 468 287.258 468 237H440ZM377 174C411.794 174 440 202.206 440 237H468C468 186.742 427.258 146 377 146V174ZM369.529 174.437C371.974 174.149 374.466 174 377 174V146C373.369 146 369.781 146.213 366.251 146.63L369.529 174.437ZM240.5 63C298.6 63 346.613 106.287 354.01 162.364L381.77 158.702C372.56 88.881 312.833 35 240.5 35V63ZM126.96 162.594C134.256 106.405 182.32 63 240.5 63V35C168.068 35 108.277 89.0278 99.193 158.988L126.96 162.594ZM102 174C105.091 174 108.122 174.222 111.08 174.648L115.073 146.934C110.797 146.318 106.431 146 102 146V174ZM39 237C39 202.206 67.2061 174 102 174V146C51.7421 146 11 186.742 11 237H39ZM102 300C67.2061 300 39 271.794 39 237H11C11 287.258 51.7421 328 102 328V300ZM153.474 273.335C142.04 289.496 123.246 300 102 300V328C132.717 328 159.875 312.768 176.332 289.507L153.474 273.335ZM199.152 284.311C189.838 280.702 181.108 275.907 173.148 270.106L156.658 292.736C166.556 299.949 177.426 305.921 189.037 310.42L199.152 284.311ZM185.569 308.47C200.997 320.316 221.528 328 244 328V300C227.871 300 213.299 294.46 202.621 286.261L185.569 308.47ZM244 328C271.15 328 295.559 316.778 311.546 300.389L291.503 280.838C280.766 291.844 263.576 300 244 300V328Z" fill="#222831" mask="url(#path-17-outside-1_101_2)"/>
</svg>
