<svg width="457" height="293" viewBox="0 0 457 293" fill="none" xmlns="http://www.w3.org/2000/svg">
<circle cx="91" cy="202" r="77" fill="#EEEEEE"/>
<path d="M60.4733 218.338C51.9733 214.338 45.9733 176.301 81.9733 186.838C88.201 188.66 93.3279 192.415 97.4198 196.838M109.473 218.338C108.026 213.065 104.104 204.061 97.4198 196.838M85.9733 210.338C85.771 206.671 87.777 198.838 97.4198 196.838" stroke="#222831" stroke-width="2" stroke-linecap="round"/>
<circle cx="366" cy="202" r="77" fill="#EEEEEE"/>
<circle cx="229.5" cy="142.5" r="128.5" fill="#00ADB5"/>
<path fill-rule="evenodd" clip-rule="evenodd" d="M302.189 205.122C326.359 183.985 344 156.61 344 126.87C344 70.671 292.96 54 230 54C167.04 54 116 70.671 116 126.87C116 159.175 135.271 187.48 162.234 208.907C160.775 212.977 160 217.24 160 221.632C160 250.147 192.683 279 233 279C273.317 279 306 250.147 306 221.632C306 215.858 304.66 210.306 302.189 205.122Z" fill="#EEEEEE"/>
<ellipse cx="180.5" cy="189" rx="8.5" ry="8" fill="#222831"/>
<ellipse cx="281.5" cy="189" rx="8.5" ry="8" fill="#222831"/>
<path d="M174 217.586C194.567 228.943 202.794 225.356 219.247 219.379C235.701 213.402 231.588 213.402 245.691 217.586C259.794 221.77 270.371 225.356 288 214" stroke="#222831" stroke-width="2" stroke-linecap="round"/>
<path d="M164 175C167.252 171.34 175.605 165.119 183 169.51" stroke="#222831" stroke-width="3" stroke-linecap="round"/>
<path d="M296 174C292.748 170.34 284.395 164.119 277 168.51" stroke="#222831" stroke-width="3" stroke-linecap="round"/>
<ellipse cx="219.554" cy="203.851" rx="2.03313" ry="5.48351" transform="rotate(46.3055 219.554 203.851)" fill="#222831"/>
<ellipse cx="243.222" cy="202.778" rx="2.03313" ry="5.48351" transform="rotate(135 243.222 202.778)" fill="#222831"/>
<path d="M198.531 102.781C198.531 101.031 199.125 99.5625 200.312 98.375C201.562 97.125 203.062 96.5 204.812 96.5H259.375C261.125 96.5 262.625 97.0938 263.875 98.2812C265.062 99.5312 265.656 101.031 265.656 102.781C265.656 104.531 265.031 106.031 263.781 107.281C262.594 108.469 261.125 109.062 259.375 109.062H238.469V147.031C238.094 150.781 236.031 152.812 232.281 153.125C230.531 153.125 229 152.562 227.688 151.438C226.438 150.25 225.812 148.781 225.812 147.031V109.062H204.812C203.062 109.062 201.594 108.438 200.406 107.188C199.156 106 198.531 104.531 198.531 102.781Z" fill="#00ADB5"/>
<path d="M397 222.338C405.5 218.338 411.5 180.301 375.5 190.838C369.272 192.66 364.145 196.415 360.054 200.838M348 222.338C349.447 217.065 353.37 208.061 360.054 200.838M371.5 214.338C371.702 210.671 369.696 202.838 360.054 200.838" stroke="#222831" stroke-width="2" stroke-linecap="round"/>
<mask id="path-15-outside-1_33_14" maskUnits="userSpaceOnUse" x="0" y="0" width="457" height="293" fill="black">
<rect fill="white" width="457" height="293"/>
<path fill-rule="evenodd" clip-rule="evenodd" d="M290.524 255.613C295.118 253.13 299.544 250.375 303.779 247.369C317.784 266.543 340.437 279 366 279C408.526 279 443 244.526 443 202C443 159.474 408.526 125 366 125C362.918 125 359.878 125.181 356.89 125.533C348.586 62.584 294.717 14 229.5 14C164.194 14 110.267 62.7165 102.076 125.791C98.4595 125.27 94.7612 125 91 125C48.4741 125 14 159.474 14 202C14 244.526 48.4741 279 91 279C116.982 279 139.958 266.132 153.903 246.421C162.832 252.928 172.632 258.312 183.095 262.365C196.148 272.388 213.699 279 233 279C256.363 279 277.163 269.311 290.524 255.613Z"/>
</mask>
<path d="M303.779 247.369L315.084 239.112C310.568 232.928 301.922 231.52 295.677 235.952L303.779 247.369ZM290.524 255.613L283.866 243.298C282.623 243.97 281.489 244.826 280.503 245.838L290.524 255.613ZM356.89 125.533L343.01 127.364C344.011 134.955 350.925 140.333 358.529 139.437L356.89 125.533ZM102.076 125.791L100.08 139.648C103.789 140.182 107.557 139.207 110.541 136.942C113.526 134.676 115.477 131.309 115.96 127.594L102.076 125.791ZM153.903 246.421L162.148 235.106C159.119 232.9 155.333 231.999 151.635 232.606C147.938 233.213 144.638 235.277 142.474 238.335L153.903 246.421ZM183.095 262.365L191.621 251.261C190.563 250.449 189.395 249.792 188.152 249.311L183.095 262.365ZM295.677 235.952C291.902 238.631 287.958 241.086 283.866 243.298L297.182 267.929C302.278 265.174 307.185 262.119 311.881 258.787L295.677 235.952ZM366 265C345.095 265 326.567 254.832 315.084 239.112L292.474 255.627C309.001 278.255 335.779 293 366 293V265ZM429 202C429 236.794 400.794 265 366 265V293C416.258 293 457 252.258 457 202H429ZM366 139C400.794 139 429 167.206 429 202H457C457 151.742 416.258 111 366 111V139ZM358.529 139.437C360.974 139.149 363.466 139 366 139V111C362.369 111 358.781 111.213 355.251 111.63L358.529 139.437ZM229.5 28C287.6 28 335.613 71.287 343.01 127.364L370.77 123.702C361.56 53.881 301.833 0 229.5 0V28ZM115.96 127.594C123.256 71.4053 171.32 28 229.5 28V0C157.068 0 97.2774 54.0278 88.193 123.988L115.96 127.594ZM91 139C94.0912 139 97.1223 139.222 100.08 139.648L104.073 111.934C99.7967 111.318 95.4313 111 91 111V139ZM28 202C28 167.206 56.2061 139 91 139V111C40.7421 111 0 151.742 0 202H28ZM91 265C56.2061 265 28 236.794 28 202H0C0 252.258 40.7421 293 91 293V265ZM142.474 238.335C131.04 254.496 112.246 265 91 265V293C121.717 293 148.875 277.768 165.332 254.507L142.474 238.335ZM188.152 249.311C178.838 245.702 170.108 240.907 162.148 235.106L145.658 257.736C155.556 264.949 166.426 270.921 178.037 275.42L188.152 249.311ZM174.569 273.47C189.997 285.316 210.528 293 233 293V265C216.871 265 202.299 259.46 191.621 251.261L174.569 273.47ZM233 293C260.15 293 284.559 281.778 300.546 265.389L280.503 245.838C269.766 256.844 252.576 265 233 265V293Z" fill="#222831" mask="url(#path-15-outside-1_33_14)"/>
</svg>
