<svg width="429" height="265" viewBox="0 0 429 265" fill="none" xmlns="http://www.w3.org/2000/svg">
<ellipse cx="205.554" cy="189.851" rx="2.03313" ry="5.48351" transform="rotate(46.3055 205.554 189.851)" fill="#222831"/>
<ellipse cx="229.222" cy="188.778" rx="2.03313" ry="5.48351" transform="rotate(135 229.222 188.778)" fill="#222831"/>
<path d="M166 145C177.598 145 187 153.954 187 165C187 176.046 177.598 185 166 185C154.402 185 145 176.046 145 165C145 162.886 145.345 160.85 145.983 158.938C147.656 162.518 151.287 165 155.5 165C161.299 165 166 160.299 166 154.5C166 150.726 164.007 147.418 161.018 145.567C162.615 145.197 164.283 145 166 145Z" fill="#222831"/>
<path d="M266 145C277.598 145 287 153.954 287 165C287 176.046 277.598 185 266 185C254.402 185 245 176.046 245 165C245 162.886 245.345 160.85 245.983 158.938C247.656 162.518 251.287 165 255.5 165C261.299 165 266 160.299 266 154.5C266 150.726 264.007 147.418 261.018 145.567C262.615 145.197 264.283 145 266 145Z" fill="#222831"/>
<path d="M166.152 205.564C166.152 196.564 179.252 190.964 195.652 198.564C212.052 206.164 231.486 201.731 239.152 198.564C243 196.975 267.152 192.405 267.152 205.564C267.152 222.509 251.5 229.009 216 229.009C189.5 229.009 166.152 219.509 166.152 205.564ZM220.878 221.009C209.878 221.009 190.179 224.009 199.378 226.009C208.378 227.966 230.378 228.009 241.378 226.009C252.509 223.985 232.378 221.509 220.878 221.009Z" fill="#1E1E1E"/>
</svg>
