<svg width="429" height="265" viewBox="0 0 429 265" fill="none" xmlns="http://www.w3.org/2000/svg">
<ellipse cx="205.554" cy="189.851" rx="2.03313" ry="5.48351" transform="rotate(46.3055 205.554 189.851)" fill="#222831"/>
<ellipse cx="229.222" cy="188.778" rx="2.03313" ry="5.48351" transform="rotate(135 229.222 188.778)" fill="#222831"/>
<path d="M128 167C128 155.954 136.954 147 148 147H192V191C192 202.046 183.046 211 172 211H148C136.954 211 128 202.046 128 191V167Z" fill="#222831"/>
<path d="M239 147H283C294.046 147 303 155.954 303 167V191C303 202.046 294.046 211 283 211H259C247.954 211 239 202.046 239 191V147Z" fill="#222831"/>
<path d="M184 147H243V157H184V147Z" fill="#222831"/>
<path d="M204.5 157C196.1 157 192.667 164 192 167.5V157H204.5Z" fill="#222831"/>
<path d="M226.694 157C235.094 157 238.528 164 239.194 167.5V157H226.694Z" fill="#222831"/>
<path d="M173 220L218 208L263 221" stroke="#222831" stroke-width="4" stroke-linecap="round" stroke-linejoin="round"/>
</svg>
