<svg width="429" height="265" viewBox="0 0 429 265" fill="none" xmlns="http://www.w3.org/2000/svg">
<ellipse cx="166.5" cy="175" rx="8.5" ry="8" fill="#222831"/>
<ellipse cx="266.5" cy="175" rx="8.5" ry="8" fill="#222831"/>
<path d="M160 203.586C180.567 214.943 188.794 211.356 205.247 205.379C221.701 199.402 217.588 199.402 231.691 203.586C245.794 207.77 256.371 211.356 274 200" stroke="#222831" stroke-width="2" stroke-linecap="round"/>
<path d="M150 161C153.252 157.34 161.605 151.119 169 155.51" stroke="#222831" stroke-width="3" stroke-linecap="round"/>
<path d="M282 160C278.748 156.34 270.395 150.119 263 154.51" stroke="#222831" stroke-width="3" stroke-linecap="round"/>
<ellipse cx="205.554" cy="189.851" rx="2.03313" ry="5.48351" transform="rotate(46.3055 205.554 189.851)" fill="#222831"/>
<ellipse cx="229.222" cy="188.778" rx="2.03313" ry="5.48351" transform="rotate(135 229.222 188.778)" fill="#222831"/>
</svg>
