<svg width="429" height="265" viewBox="0 0 429 265" fill="none" xmlns="http://www.w3.org/2000/svg">
<ellipse cx="205.554" cy="189.851" rx="2.03313" ry="5.48351" transform="rotate(46.3055 205.554 189.851)" fill="#222831"/>
<ellipse cx="229.222" cy="188.778" rx="2.03313" ry="5.48351" transform="rotate(135 229.222 188.778)" fill="#222831"/>
<path d="M170.5 164C170.5 161.791 168.485 160 166 160C163.515 160 161.5 161.791 161.5 164C161.5 166.209 163.515 168 166 168C168.485 168 170.5 166.209 170.5 164Z" fill="#222831"/>
<ellipse cx="4.5" cy="4" rx="4.5" ry="4" transform="matrix(1 0 0 -1 267 181)" fill="#222831"/>
<path d="M219.878 214C231.378 214.5 251.509 216.976 240.378 219C229.378 221 207.378 220.957 198.378 219C189.179 217 208.878 214 219.878 214Z" fill="#1E1E1E"/>
</svg>
