<svg width="457" height="291" viewBox="0 0 457 291" fill="none" xmlns="http://www.w3.org/2000/svg">
<circle cx="91" cy="201" r="77" fill="#EEEEEE"/>
<path d="M60.4733 217.338C51.9733 213.338 45.9733 175.301 81.9733 185.838C88.201 187.66 93.3279 191.415 97.4198 195.838M109.473 217.338C108.026 212.065 104.104 203.061 97.4198 195.838M85.9733 209.338C85.771 205.671 87.777 197.838 97.4198 195.838" stroke="#222831" stroke-width="2" stroke-linecap="round"/>
<circle cx="366" cy="201" r="77" fill="#EEEEEE"/>
<circle cx="229.5" cy="141.5" r="128.5" fill="#228B22"/>
<path d="M230 53C292.96 53 344 69.6713 344 125.87C344 155.61 326.357 182.984 302.187 204.121C304.659 209.305 306 214.858 306 220.632C306 249.147 273.317 278 233 278C192.683 278 160 249.147 160 220.632C160 216.24 160.775 211.976 162.234 207.905C135.272 186.478 116 158.175 116 125.87C116 69.6713 167.04 53 230 53Z" fill="#EEEEEE"/>
<path d="M397 221.338C405.5 217.338 411.5 179.301 375.5 189.838C369.272 191.66 364.145 195.415 360.054 199.838M348 221.338C349.447 216.065 353.37 207.061 360.054 199.838M371.5 213.338C371.702 209.671 369.696 201.838 360.054 199.838" stroke="#222831" stroke-width="2" stroke-linecap="round"/>
<mask id="path-7-outside-1_120_297" maskUnits="userSpaceOnUse" x="0" y="-1" width="457" height="293" fill="black">
<rect fill="white" y="-1" width="457" height="293"/>
<path d="M229.5 13C294.717 13 348.584 61.5847 356.887 124.534C359.875 124.182 362.917 124 366 124C408.526 124 443 158.474 443 201C443 243.526 408.526 278 366 278C340.437 278 317.782 265.543 303.777 246.368C299.542 249.373 295.117 252.129 290.523 254.612C277.162 268.31 256.363 278 233 278C213.697 278 196.144 271.385 183.09 261.36C172.629 257.307 162.829 251.926 153.901 245.42C139.957 265.131 116.982 278 91 278C48.4741 278 14 243.526 14 201C14 158.474 48.4741 124 91 124C94.7615 124 98.4599 124.271 102.077 124.792C110.267 61.7172 164.194 13 229.5 13Z"/>
</mask>
<path d="M356.887 124.534L343.007 126.365C344.008 133.956 350.922 139.334 358.526 138.438L356.887 124.534ZM303.777 246.368L315.083 238.111C310.567 231.927 301.92 230.519 295.676 234.951L303.777 246.368ZM290.523 254.612L283.865 242.297C282.622 242.969 281.488 243.825 280.502 244.836L290.523 254.612ZM233 278L233 292H233V278ZM183.09 261.36L191.617 250.257C190.559 249.445 189.391 248.788 188.148 248.306L183.09 261.36ZM153.901 245.42L162.146 234.105C159.118 231.899 155.332 230.998 151.634 231.605C147.937 232.212 144.636 234.275 142.472 237.334L153.901 245.42ZM102.077 124.792L100.081 138.649C103.789 139.183 107.557 138.209 110.542 135.943C113.526 133.678 115.478 130.31 115.961 126.595L102.077 124.792ZM229.5 13V27C287.6 27 335.61 70.2872 343.007 126.365L356.887 124.534L370.766 122.703C361.557 52.8822 301.834 -1 229.5 -1V13ZM356.887 124.534L358.526 138.438C360.974 138.149 363.467 138 366 138V124V110C362.366 110 358.777 110.214 355.247 110.631L356.887 124.534ZM366 124V138C400.794 138 429 166.206 429 201H443H457C457 150.742 416.258 110 366 110V124ZM443 201H429C429 235.794 400.794 264 366 264V278V292C416.258 292 457 251.258 457 201H443ZM366 278V264C345.094 264 326.565 253.832 315.083 238.111L303.777 246.368L292.472 254.625C308.999 277.254 335.779 292 366 292V278ZM303.777 246.368L295.676 234.951C291.9 237.63 287.957 240.085 283.865 242.297L290.523 254.612L297.182 266.928C302.277 264.173 307.184 261.117 311.879 257.786L303.777 246.368ZM290.523 254.612L280.502 244.836C269.765 255.843 252.576 264 233 264V278V292C260.151 292 284.558 280.777 300.545 264.388L290.523 254.612ZM233 278L233 264C216.869 264 202.296 258.458 191.617 250.257L183.09 261.36L174.563 272.464C189.992 284.312 210.525 292 233 292L233 278ZM183.09 261.36L188.148 248.306C178.833 244.697 170.103 239.904 162.146 234.105L153.901 245.42L145.656 256.734C155.555 263.948 166.424 269.917 178.032 274.415L183.09 261.36ZM153.901 245.42L142.472 237.334C131.039 253.496 112.246 264 91 264V278V292C121.718 292 148.874 276.766 165.33 253.506L153.901 245.42ZM91 278V264C56.2061 264 28 235.794 28 201H14H0C0 251.258 40.7421 292 91 292V278ZM14 201H28C28 166.206 56.2061 138 91 138V124V110C40.7421 110 0 150.742 0 201H14ZM91 124V138C94.0886 138 97.1198 138.222 100.081 138.649L102.077 124.792L104.074 110.935C99.8 110.319 95.4345 110 91 110V124ZM102.077 124.792L115.961 126.595C123.256 70.4058 171.32 27 229.5 27V13V-1C157.068 -1 97.2775 53.0287 88.1937 122.989L102.077 124.792Z" fill="#222831" mask="url(#path-7-outside-1_120_297)"/>
</svg>
